<svg xmlns="http://www.w3.org/2000/svg" viewBox="0 0 64 64" fill="none">
<ellipse cx="26" cy="40" rx="17" ry="14" fill="#b33c28" stroke="#201e1d" stroke-width="3"/>
<circle cx="42" cy="23" r="9" fill="#b33c28" stroke="#201e1d" stroke-width="3"/>
<path d="M38 10c1-3 3-5 6-4-1 2-1 4-2 6-1-1-3-1-4-2z" fill="#c67139" stroke="#201e1d" stroke-width="2.5" stroke-linejoin="round"/>
<path d="M44 11c2-2 4-3 6-1-1 2-2 3-4 4-1-1-2-2-2-3z" fill="#c67139" stroke="#201e1d" stroke-width="2.5" stroke-linejoin="round"/>
<path d="M51 22l7 2-7 3z" fill="#c67139" stroke="#201e1d" stroke-width="3" stroke-linejoin="round"/>
<path d="M39 28c0 3-1 5-3 6M43 29c1 3 0 5-1 7" stroke="#c67139" stroke-width="2.5" stroke-linecap="round" fill="none"/>
<circle cx="45" cy="20" r="1.8" fill="#201e1d"/>
<path d="M12 32c-6-2-9-10-6-17 5 3 9 9 10 15M8 24c-5 0-8-6-6-12 4 2 7 6 9 10" fill="#e8b84a" stroke="#201e1d" stroke-width="3" stroke-linejoin="round"/>
<path d="M14 53l5-6M23 55l3-6M32 54l2-6" stroke="#201e1d" stroke-width="3" stroke-linecap="round"/>
</svg>